<svg width="28" height="8" viewBox="0 0 28 8" fill="none" xmlns="http://www.w3.org/2000/svg">
<path d="M3.37909 5.168C3.69909 5.168 3.85909 5.304 3.85909 5.576C3.85909 5.85867 3.69909 6 3.37909 6H0.675094C0.34976 6 0.187094 5.85867 0.187094 5.576C0.187094 5.304 0.34976 5.168 0.675094 5.168H1.50709V1.52L0.739094 1.992C0.664427 2.03467 0.59776 2.056 0.539094 2.056C0.427094 2.056 0.331094 2.008 0.251094 1.912C0.176427 1.816 0.139094 1.70933 0.139094 1.592C0.139094 1.43733 0.208427 1.31733 0.347094 1.232L1.58709 0.464C1.74709 0.368 1.89909 0.32 2.04309 0.32C2.19243 0.32 2.31243 0.365333 2.40309 0.456C2.49376 0.546666 2.53909 0.672 2.53909 0.832V5.168H3.37909ZM8.15197 5.168C8.47197 5.168 8.63197 5.304 8.63197 5.576C8.63197 5.85867 8.47197 6 8.15197 6H5.11197C4.9733 6 4.86397 5.96 4.78397 5.88C4.70397 5.79467 4.66397 5.69067 4.66397 5.568C4.66397 5.408 4.7253 5.264 4.84797 5.136L6.67197 3.176C6.89597 2.93067 7.05864 2.70667 7.15997 2.504C7.26664 2.296 7.31997 2.09067 7.31997 1.888C7.31997 1.63733 7.24797 1.44533 7.10397 1.312C6.95997 1.17867 6.75464 1.112 6.48797 1.112C6.2693 1.112 6.05597 1.15467 5.84797 1.24C5.6453 1.32 5.43997 1.432 5.23197 1.576C5.17864 1.61333 5.1253 1.64533 5.07197 1.672C5.01864 1.69333 4.9653 1.704 4.91197 1.704C4.8213 1.704 4.7413 1.66133 4.67197 1.576C4.60797 1.49067 4.57597 1.38933 4.57597 1.272C4.57597 1.192 4.5893 1.12267 4.61597 1.064C4.64797 1.00533 4.69597 0.949333 4.75997 0.896C4.99464 0.709333 5.2693 0.562666 5.58397 0.456C5.89864 0.344 6.2133 0.288 6.52797 0.288C7.0773 0.288 7.51464 0.426666 7.83997 0.704C8.17064 0.981333 8.33597 1.35467 8.33597 1.824C8.33597 2.14933 8.26664 2.456 8.12797 2.744C7.9893 3.02667 7.75464 3.344 7.42397 3.696L6.03997 5.168H8.15197ZM11.6687 2.392C12.0207 2.392 12.33 2.46933 12.5967 2.624C12.8687 2.77333 13.0793 2.984 13.2287 3.256C13.378 3.528 13.4527 3.84 13.4527 4.192C13.4527 4.56 13.3673 4.88533 13.1967 5.168C13.0313 5.45067 12.794 5.672 12.4847 5.832C12.1807 5.98667 11.8287 6.064 11.4287 6.064C11.098 6.064 10.7727 6.01067 10.4527 5.904C10.138 5.792 9.86866 5.64267 9.64466 5.456C9.52199 5.34933 9.46066 5.224 9.46066 5.08C9.46066 4.96267 9.49266 4.864 9.55666 4.784C9.62599 4.69867 9.70599 4.656 9.79666 4.656C9.84999 4.656 9.90066 4.66667 9.94866 4.688C9.99666 4.704 10.0527 4.73333 10.1167 4.776C10.33 4.92533 10.538 5.04 10.7407 5.12C10.9433 5.2 11.1593 5.24 11.3887 5.24C11.7407 5.24 12.01 5.152 12.1967 4.976C12.3833 4.8 12.4767 4.54933 12.4767 4.224C12.4767 3.90933 12.3807 3.66133 12.1887 3.48C12.002 3.29333 11.7433 3.2 11.4127 3.2C11.2047 3.2 11.018 3.22933 10.8527 3.288C10.6927 3.34667 10.5273 3.44533 10.3567 3.584C10.2553 3.65333 10.1513 3.688 10.0447 3.688C9.93799 3.688 9.84732 3.656 9.77266 3.592C9.69799 3.528 9.66066 3.44267 9.66066 3.336V0.84C9.66066 0.690666 9.70332 0.573333 9.78866 0.488C9.87399 0.402666 9.99399 0.36 10.1487 0.36H12.8127C13.1327 0.36 13.2927 0.493333 13.2927 0.76C13.2927 1.02667 13.1327 1.16 12.8127 1.16H10.6687V2.68C10.9407 2.488 11.274 2.392 11.6687 2.392ZM16.1695 6.072C15.5029 6.072 14.9935 5.82667 14.6415 5.336C14.2895 4.84 14.1135 4.12 14.1135 3.176C14.1135 2.23733 14.2895 1.52267 14.6415 1.032C14.9935 0.536 15.5029 0.288 16.1695 0.288C16.8362 0.288 17.3455 0.536 17.6975 1.032C18.0495 1.52267 18.2255 2.23733 18.2255 3.176C18.2255 4.11467 18.0495 4.832 17.6975 5.328C17.3455 5.824 16.8362 6.072 16.1695 6.072ZM16.1695 5.264C16.5322 5.264 16.7962 5.09867 16.9615 4.768C17.1269 4.432 17.2095 3.90133 17.2095 3.176C17.2095 2.44533 17.1269 1.91733 16.9615 1.592C16.7962 1.26133 16.5322 1.096 16.1695 1.096C15.8069 1.096 15.5429 1.26133 15.3775 1.592C15.2122 1.92267 15.1295 2.45067 15.1295 3.176C15.1295 3.90133 15.2122 4.432 15.3775 4.768C15.5429 5.09867 15.8069 5.264 16.1695 5.264ZM22.4784 5.264C22.5744 5.36 22.6224 5.46933 22.6224 5.592C22.6224 5.70933 22.5771 5.816 22.4864 5.912C22.3957 6.00267 22.2891 6.048 22.1664 6.048C22.0331 6.048 21.9184 5.992 21.8224 5.88L20.6944 4.632L19.5664 5.88C19.4651 5.98667 19.3504 6.04 19.2224 6.04C19.1051 6.04 19.0011 5.99467 18.9104 5.904C18.8197 5.81333 18.7744 5.70933 18.7744 5.592C18.7744 5.46933 18.8224 5.36 18.9184 5.264L20.0864 3.992L18.9824 2.792C18.8864 2.696 18.8384 2.58667 18.8384 2.464C18.8384 2.34133 18.8837 2.23733 18.9744 2.152C19.0651 2.06133 19.1691 2.016 19.2864 2.016C19.4144 2.016 19.5291 2.06933 19.6304 2.176L20.6944 3.344L21.7584 2.176C21.8597 2.06933 21.9744 2.016 22.1024 2.016C22.2251 2.016 22.3291 2.06133 22.4144 2.152C22.5051 2.23733 22.5504 2.34133 22.5504 2.464C22.5504 2.58667 22.5024 2.696 22.4064 2.792L21.3024 3.992L22.4784 5.264ZM25.5922 1.992C25.9282 1.992 26.2269 2.07733 26.4882 2.248C26.7549 2.41867 26.9602 2.66133 27.1042 2.976C27.2536 3.28533 27.3282 3.64267 27.3282 4.048C27.3282 4.45333 27.2536 4.808 27.1042 5.112C26.9602 5.416 26.7576 5.65067 26.4962 5.816C26.2349 5.98133 25.9336 6.064 25.5922 6.064C25.3149 6.064 25.0669 6.00533 24.8482 5.888C24.6296 5.77067 24.4616 5.608 24.3442 5.4V7.032C24.3442 7.17067 24.2989 7.28 24.2082 7.36C24.1176 7.44 23.9976 7.48 23.8482 7.48C23.6989 7.48 23.5762 7.43733 23.4802 7.352C23.3896 7.26667 23.3442 7.15467 23.3442 7.016V2.48C23.3442 2.336 23.3869 2.22133 23.4722 2.136C23.5629 2.05067 23.6829 2.008 23.8322 2.008C23.9816 2.008 24.1016 2.05067 24.1922 2.136C24.2829 2.22133 24.3282 2.336 24.3282 2.48V2.68C24.4456 2.46133 24.6136 2.29333 24.8322 2.176C25.0562 2.05333 25.3096 1.992 25.5922 1.992ZM25.3282 5.288C25.6429 5.288 25.8882 5.18133 26.0642 4.968C26.2402 4.74933 26.3282 4.44267 26.3282 4.048C26.3282 3.64267 26.2402 3.328 26.0642 3.104C25.8882 2.88 25.6429 2.768 25.3282 2.768C25.0082 2.768 24.7602 2.87733 24.5842 3.096C24.4136 3.31467 24.3282 3.62667 24.3282 4.032C24.3282 4.432 24.4136 4.74133 24.5842 4.96C24.7602 5.17867 25.0082 5.288 25.3282 5.288Z" fill="black"/>
</svg>
