<svg width="30" height="30" viewBox="0 0 30 30" fill="none" xmlns="http://www.w3.org/2000/svg">
<rect width="30" height="30" fill="#0A182E"/>
<path d="M14.8001 10.125C14.8184 10.0875 14.8468 10.0559 14.8822 10.0338C14.9176 10.0117 14.9584 10 15.0001 10C15.0418 10 15.0827 10.0117 15.118 10.0338C15.1534 10.0559 15.1819 10.0875 15.2001 10.125L15.9926 11.7313C16.0085 11.7637 16.032 11.7919 16.0612 11.8132C16.0904 11.8346 16.1244 11.8485 16.1601 11.8538L17.9351 12.1113C18.1164 12.1375 18.1901 12.3613 18.0576 12.49L16.7751 13.7413C16.7492 13.7665 16.7299 13.7977 16.7188 13.8321C16.7077 13.8665 16.7052 13.9031 16.7114 13.9388L17.0139 15.7063C17.0207 15.7471 17.0159 15.789 17.0002 15.8272C16.9845 15.8655 16.9585 15.8987 16.925 15.9229C16.8915 15.9472 16.8519 15.9617 16.8106 15.9647C16.7693 15.9677 16.728 15.9592 16.6914 15.94L15.1039 15.105C15.072 15.0884 15.0367 15.0797 15.0007 15.0797C14.9648 15.0797 14.9295 15.0884 14.8976 15.105L13.3101 15.94C13.2735 15.9588 13.2324 15.9671 13.1913 15.9639C13.1502 15.9607 13.1109 15.9462 13.0776 15.922C13.0443 15.8978 13.0183 15.8648 13.0027 15.8267C12.987 15.7886 12.9822 15.7469 12.9889 15.7063L13.2914 13.9388C13.2978 13.9032 13.2954 13.8667 13.2845 13.8323C13.2736 13.7979 13.2545 13.7666 13.2289 13.7413L11.9414 12.49C11.9119 12.461 11.891 12.4244 11.8812 12.3843C11.8713 12.3442 11.8728 12.3021 11.8856 12.2628C11.8983 12.2234 11.9217 12.1884 11.9532 12.1617C11.9847 12.1349 12.023 12.1175 12.0639 12.1113L13.8389 11.8538C13.8746 11.8485 13.9086 11.8346 13.9378 11.8132C13.967 11.7919 13.9905 11.7637 14.0064 11.7313L14.8001 10.125Z" fill="#929AA3"/>
<path d="M7.5 7.5C7.5 6.83696 7.76339 6.20107 8.23223 5.73223C8.70107 5.26339 9.33696 5 10 5H20C20.663 5 21.2989 5.26339 21.7678 5.73223C22.2366 6.20107 22.5 6.83696 22.5 7.5V24.375C22.4999 24.4881 22.4692 24.599 22.4111 24.6959C22.353 24.7929 22.2697 24.8723 22.17 24.9257C22.0703 24.979 21.9581 25.0044 21.8451 24.999C21.7322 24.9936 21.6229 24.9576 21.5287 24.895L15 21.3762L8.47125 24.895C8.37713 24.9576 8.26779 24.9936 8.15486 24.999C8.04194 25.0044 7.92967 24.979 7.83 24.9257C7.73033 24.8723 7.64701 24.7929 7.58889 24.6959C7.53078 24.599 7.50006 24.4881 7.5 24.375V7.5ZM10 6.25C9.66848 6.25 9.35054 6.3817 9.11612 6.61612C8.8817 6.85054 8.75 7.16848 8.75 7.5V23.2075L14.6538 20.105C14.7563 20.0367 14.8768 20.0003 15 20.0003C15.1232 20.0003 15.2437 20.0367 15.3463 20.105L21.25 23.2075V7.5C21.25 7.16848 21.1183 6.85054 20.8839 6.61612C20.6495 6.3817 20.3315 6.25 20 6.25H10Z" fill="#929AA3"/>
</svg>
