<svg width="30" height="30" viewBox="0 0 30 30" fill="none" xmlns="http://www.w3.org/2000/svg">
<rect width="30" height="30" fill="#0A182E"/>
<path d="M17.5 22.5H12.5V15.5C12.5 15.3674 12.5527 15.2402 12.6464 15.1464C12.7402 15.0527 12.8674 15 13 15H17C17.1326 15 17.2598 15.0527 17.3536 15.1464C17.4473 15.2402 17.5 15.3674 17.5 15.5V22.5V22.5Z" stroke="#929AA3" stroke-linecap="round" stroke-linejoin="round"/>
<path d="M22 22.5H17.5V20.0833C17.5 19.9507 17.5527 19.8235 17.6464 19.7298C17.7402 19.636 17.8674 19.5833 18 19.5833H22C22.1326 19.5833 22.2598 19.636 22.3536 19.7298C22.4473 19.8235 22.5 19.9507 22.5 20.0833V22C22.5 22.1326 22.4473 22.2598 22.3536 22.3535C22.2598 22.4473 22.1326 22.5 22 22.5V22.5Z" stroke="#929AA3" stroke-linecap="round" stroke-linejoin="round"/>
<path d="M12.5 22.5V18.4167C12.5 18.284 12.4473 18.1569 12.3536 18.0631C12.2598 17.9693 12.1326 17.9167 12 17.9167H8C7.86739 17.9167 7.74021 17.9693 7.64645 18.0631C7.55268 18.1569 7.5 18.284 7.5 18.4167V22C7.5 22.1326 7.55268 22.2598 7.64645 22.3535C7.74021 22.4473 7.86739 22.5 8 22.5H12.5V22.5Z" stroke="#929AA3" stroke-linecap="round" stroke-linejoin="round"/>
<path d="M14.005 9.26083L14.7625 7.65499C14.7829 7.60909 14.8163 7.57009 14.8584 7.54272C14.9006 7.51536 14.9497 7.50079 15 7.50079C15.0502 7.50079 15.0994 7.51536 15.1416 7.54272C15.1837 7.57009 15.217 7.60909 15.2375 7.65499L15.9958 9.26083L17.6892 9.51999C17.9067 9.55333 17.9933 9.83333 17.8358 9.99333L16.6108 11.2433L16.9 13.0083C16.9367 13.235 16.71 13.4083 16.515 13.3008L15 12.4675L13.485 13.3008C13.2908 13.4075 13.0633 13.235 13.1 13.0083L13.3892 11.2433L12.1642 9.99333C12.0058 9.83333 12.0933 9.55333 12.31 9.51999L14.005 9.26166V9.26083Z" stroke="#929AA3" stroke-linecap="round" stroke-linejoin="round"/>
</svg>
