<svg width="18" height="18" viewBox="0 0 18 18" fill="none" xmlns="http://www.w3.org/2000/svg">
<path d="M17.0394 1.10195C17.0328 1.06989 17.0171 1.04039 16.9943 1.01694C16.9715 0.993476 16.9424 0.977027 16.9105 0.969524C14.7863 0.449992 9.87928 2.30116 7.21795 4.96054C6.74364 5.43095 6.31115 5.94173 5.92537 6.4871C5.10506 6.41288 4.28475 6.47538 3.58631 6.78007C1.61405 7.64726 1.04022 9.9121 0.880061 10.8844C0.871384 10.9376 0.87509 10.9922 0.890893 11.0438C0.906695 11.0954 0.93417 11.1427 0.971188 11.182C1.0082 11.2213 1.05377 11.2515 1.10435 11.2703C1.15494 11.2892 1.20918 11.2961 1.26287 11.2906L4.42967 10.943C4.43186 11.1818 4.4462 11.4204 4.47264 11.6578C4.48917 11.8219 4.56238 11.9751 4.67967 12.091L5.90584 13.3172C6.02187 13.4346 6.17521 13.5078 6.33944 13.5242C6.57541 13.5505 6.81256 13.5649 7.04998 13.5672L6.70272 16.7312C6.6973 16.7849 6.70428 16.839 6.72312 16.8895C6.74197 16.94 6.77217 16.9855 6.8114 17.0225C6.85063 17.0594 6.89783 17.0869 6.94936 17.1027C7.00089 17.1185 7.05537 17.1223 7.10858 17.1137C8.08123 16.9574 10.3508 16.3836 11.2129 14.4117C11.5176 13.7125 11.5801 12.8965 11.5097 12.0801C12.0567 11.6946 12.569 11.2621 13.0406 10.7875C15.7117 8.13124 17.5512 3.33202 17.0394 1.10195ZM10.6664 7.34648C10.4331 7.11322 10.2742 6.81602 10.2098 6.49246C10.1454 6.16889 10.1784 5.8335 10.3046 5.5287C10.4309 5.22389 10.6447 4.96337 10.919 4.78007C11.1933 4.59678 11.5158 4.49894 11.8457 4.49894C12.1756 4.49894 12.4981 4.59678 12.7724 4.78007C13.0467 4.96337 13.2605 5.22389 13.3867 5.5287C13.513 5.8335 13.546 6.16889 13.4816 6.49246C13.4172 6.81602 13.2583 7.11322 13.025 7.34648C12.8702 7.50156 12.6864 7.62459 12.4841 7.70853C12.2817 7.79248 12.0648 7.83569 11.8457 7.83569C11.6266 7.83569 11.4097 7.79248 11.2073 7.70853C11.005 7.62459 10.8211 7.50156 10.6664 7.34648V7.34648Z" stroke="white" stroke-linecap="round" stroke-linejoin="round"/>
</svg>
